<svg width="10" height="15" viewBox="0 0 10 15" fill="none" xmlns="http://www.w3.org/2000/svg">
    <path d="M5.47771 14.7957L9.80212 10.332C10.066 10.0596 10.066 9.61792 9.80212 9.34558C9.53822 9.07318 9.11043 9.07318 8.84653 9.34558L5.6756 12.6187L5.6756 0.69746C5.6756 0.312295 5.37306 -2.0225e-07 4.99992 -2.18561e-07C4.62683 -2.34869e-07 4.32423 0.312295 4.32423 0.69746L4.32423 12.6187L1.1533 9.34569C0.889401 9.07329 0.461608 9.07329 0.197711 9.34569C0.0658708 9.48183 -0.000184481 9.66038 -0.000184489 9.83888C-0.000184497 10.0174 0.0658708 10.1959 0.197711 10.3321L4.52212 14.7957C4.78602 15.0681 5.21381 15.0681 5.47771 14.7957Z" fill="#F9B55E"/>
</svg>
