<svg width="32" height="32" viewBox="0 0 32 32" fill="none" xmlns="http://www.w3.org/2000/svg">
    <circle cx="16" cy="16" r="15.5" fill="#3C2B6C" stroke="#F9B55E"/>
    <path d="M16.5917 24.7549L21.9482 19.3984C22.2751 19.0716 22.2751 18.5415 21.9482 18.2147C21.6214 17.8878 21.0915 17.8878 20.7646 18.2147L16.8369 22.1424L16.8369 7.83695C16.8369 7.37475 16.4621 7 15.9999 7C15.5378 7 15.163 7.37475 15.163 7.83695L15.163 22.1424L11.2352 18.2148C10.9084 17.888 10.3785 17.888 10.0516 18.2148C9.88828 18.3782 9.80646 18.5925 9.80646 18.8067C9.80646 19.0209 9.88828 19.2351 10.0516 19.3985L15.4081 24.7549C15.735 25.0818 16.2649 25.0818 16.5917 24.7549Z" fill="#F9B55E"/>
</svg>
