<svg width="67" height="16" viewBox="0 0 67 16" fill="none" xmlns="http://www.w3.org/2000/svg">
    <path d="M6.59365 1.33369C7.30032 1.33369 7.95365 1.52702 8.55365 1.91369C9.15365 2.28702 9.62699 2.80036 9.97365 3.45369C10.3337 4.10702 10.5137 4.82702 10.5137 5.61369C10.5137 6.40036 10.3337 7.12702 9.97365 7.79369C9.62699 8.46036 9.15365 8.98702 8.55365 9.37369C7.95365 9.76036 7.30032 9.95369 6.59365 9.95369H2.83365V14.3737C2.83365 14.6404 2.74699 14.867 2.57365 15.0537C2.40032 15.2404 2.18032 15.3337 1.91365 15.3337C1.63365 15.3337 1.40699 15.247 1.23365 15.0737C1.07365 14.887 0.993652 14.6537 0.993652 14.3737V2.29369C0.993652 2.02702 1.08699 1.80036 1.27365 1.61369C1.46032 1.42702 1.68699 1.33369 1.95365 1.33369H6.59365ZM6.59365 8.13369C6.95365 8.13369 7.28699 8.02036 7.59365 7.79369C7.90032 7.55369 8.14032 7.24036 8.31365 6.85369C8.50032 6.46702 8.59365 6.05369 8.59365 5.61369C8.59365 4.93369 8.39365 4.36036 7.99365 3.89369C7.60699 3.41369 7.14032 3.17369 6.59365 3.17369H2.83365V8.13369H6.59365Z" fill="white"/>
    <path d="M22.4705 10.0937C22.4705 11.1337 22.2372 12.067 21.7705 12.8937C21.3039 13.7204 20.6639 14.367 19.8505 14.8337C19.0505 15.3004 18.1639 15.5337 17.1905 15.5337C16.2172 15.5337 15.3239 15.3004 14.5105 14.8337C13.7105 14.367 13.0772 13.7204 12.6105 12.8937C12.1439 12.067 11.9105 11.1337 11.9105 10.0937C11.9105 9.05369 12.1439 8.11369 12.6105 7.27369C13.0772 6.43369 13.7105 5.78036 14.5105 5.31369C15.3239 4.84702 16.2172 4.61369 17.1905 4.61369C18.1639 4.61369 19.0505 4.84702 19.8505 5.31369C20.6639 5.78036 21.3039 6.43369 21.7705 7.27369C22.2372 8.11369 22.4705 9.05369 22.4705 10.0937ZM20.5705 10.0937C20.5705 9.37369 20.4172 8.73369 20.1105 8.17369C19.8172 7.60036 19.4105 7.16036 18.8905 6.85369C18.3839 6.53369 17.8172 6.37369 17.1905 6.37369C16.5639 6.37369 15.9905 6.53369 15.4705 6.85369C14.9639 7.16036 14.5572 7.60036 14.2505 8.17369C13.9572 8.73369 13.8105 9.37369 13.8105 10.0937C13.8105 10.8004 13.9572 11.4337 14.2505 11.9937C14.5572 12.5537 14.9639 12.9937 15.4705 13.3137C15.9905 13.6204 16.5639 13.7737 17.1905 13.7737C17.8172 13.7737 18.3839 13.6204 18.8905 13.3137C19.4105 12.9937 19.8172 12.5537 20.1105 11.9937C20.4172 11.4337 20.5705 10.8004 20.5705 10.0937Z" fill="white"/>
    <path d="M26.7394 14.3737C26.7394 14.6404 26.6461 14.867 26.4594 15.0537C26.2728 15.2404 26.0461 15.3337 25.7794 15.3337C25.5128 15.3337 25.2861 15.2404 25.0994 15.0537C24.9261 14.867 24.8394 14.6404 24.8394 14.3737V1.49369C24.8394 1.22702 24.9328 1.00036 25.1194 0.813691C25.3061 0.627025 25.5328 0.533691 25.7994 0.533691C26.0661 0.533691 26.2861 0.627025 26.4594 0.813691C26.6461 1.00036 26.7394 1.22702 26.7394 1.49369V14.3737Z" fill="white"/>
    <path d="M38.298 13.6737C38.498 13.887 38.598 14.1204 38.598 14.3737C38.598 14.6404 38.4914 14.867 38.278 15.0537C38.078 15.227 37.8647 15.3137 37.638 15.3137C37.3447 15.3137 37.1114 15.207 36.938 14.9937L32.998 10.8137L31.798 11.8937V14.3737C31.798 14.6404 31.7047 14.867 31.518 15.0537C31.3447 15.2404 31.1247 15.3337 30.858 15.3337C30.578 15.3337 30.3447 15.2404 30.158 15.0537C29.9847 14.867 29.898 14.6404 29.898 14.3737V1.49369C29.898 1.22702 29.9847 1.00036 30.158 0.813691C30.3447 0.627025 30.578 0.533691 30.858 0.533691C31.1247 0.533691 31.3447 0.627025 31.518 0.813691C31.7047 1.00036 31.798 1.22702 31.798 1.49369V9.61369L36.698 5.11369C36.9247 4.91369 37.158 4.81369 37.398 4.81369C37.6247 4.81369 37.8314 4.91369 38.018 5.11369C38.2047 5.30036 38.298 5.50036 38.298 5.71369C38.298 5.98036 38.1714 6.22036 37.918 6.43369L34.458 9.51369L38.298 13.6737Z" fill="white"/>
    <path d="M49.2537 4.71369C49.5337 4.71369 49.7603 4.80702 49.9337 4.99369C50.1203 5.16702 50.2137 5.40036 50.2137 5.69369V14.3737C50.2137 14.6404 50.1203 14.867 49.9337 15.0537C49.7603 15.2404 49.5337 15.3337 49.2537 15.3337C48.9737 15.3337 48.747 15.247 48.5737 15.0737C48.4003 14.887 48.3137 14.6537 48.3137 14.3737V13.8537C47.967 14.3204 47.4937 14.7204 46.8937 15.0537C46.2937 15.3737 45.647 15.5337 44.9537 15.5337C44.047 15.5337 43.2203 15.3004 42.4737 14.8337C41.7403 14.367 41.1603 13.7204 40.7337 12.8937C40.3203 12.0537 40.1137 11.1137 40.1137 10.0737C40.1137 9.03369 40.3203 8.10036 40.7337 7.27369C41.1603 6.43369 41.7403 5.78036 42.4737 5.31369C43.207 4.84702 44.0137 4.61369 44.8937 4.61369C45.6003 4.61369 46.2537 4.76036 46.8537 5.05369C47.467 5.34702 47.9537 5.72036 48.3137 6.17369V5.69369C48.3137 5.41369 48.4003 5.18036 48.5737 4.99369C48.747 4.80702 48.9737 4.71369 49.2537 4.71369ZM45.1737 13.7737C45.8003 13.7737 46.3537 13.6137 46.8337 13.2937C47.327 12.9737 47.707 12.5337 47.9737 11.9737C48.2537 11.4137 48.3937 10.7804 48.3937 10.0737C48.3937 9.38036 48.2537 8.75369 47.9737 8.19369C47.707 7.63369 47.327 7.19369 46.8337 6.87369C46.3537 6.54036 45.8003 6.37369 45.1737 6.37369C44.547 6.37369 43.987 6.53369 43.4937 6.85369C43.0137 7.17369 42.6337 7.61369 42.3537 8.17369C42.087 8.73369 41.9537 9.36702 41.9537 10.0737C41.9537 10.7804 42.087 11.4137 42.3537 11.9737C42.6337 12.5337 43.0137 12.9737 43.4937 13.2937C43.987 13.6137 44.547 13.7737 45.1737 13.7737Z" fill="white"/>
    <path d="M55.2388 3.17369V7.31369H60.1588C60.4388 7.31369 60.6655 7.40036 60.8388 7.57369C61.0255 7.74702 61.1188 7.97369 61.1188 8.25369C61.1188 8.49369 61.0255 8.70036 60.8388 8.87369C60.6655 9.04702 60.4388 9.13369 60.1588 9.13369H55.2388V14.3737C55.2388 14.6404 55.1388 14.867 54.9388 15.0537C54.7521 15.2404 54.5255 15.3337 54.2588 15.3337C53.9788 15.3337 53.7455 15.2404 53.5588 15.0537C53.3721 14.867 53.2788 14.6404 53.2788 14.3737V2.29369C53.2788 2.02702 53.3721 1.80036 53.5588 1.61369C53.7455 1.42702 53.9721 1.33369 54.2388 1.33369H61.0588C61.3388 1.33369 61.5655 1.42036 61.7388 1.59369C61.9255 1.76702 62.0188 1.99369 62.0188 2.27369C62.0188 2.51369 61.9255 2.72702 61.7388 2.91369C61.5521 3.08702 61.3255 3.17369 61.0588 3.17369H55.2388Z" fill="white"/>
    <path d="M66.1279 14.3737C66.1279 14.6404 66.0345 14.867 65.8479 15.0537C65.6745 15.2404 65.4479 15.3337 65.1679 15.3337C64.9012 15.3337 64.6745 15.2404 64.4879 15.0537C64.3145 14.867 64.2279 14.6404 64.2279 14.3737V5.71369C64.2279 5.44702 64.3145 5.22036 64.4879 5.03369C64.6745 4.84702 64.9012 4.75369 65.1679 4.75369C65.4479 4.75369 65.6745 4.84702 65.8479 5.03369C66.0345 5.22036 66.1279 5.44702 66.1279 5.71369V14.3737ZM65.1679 3.43369C64.7812 3.43369 64.5012 3.36702 64.3279 3.23369C64.1679 3.08702 64.0879 2.86036 64.0879 2.55369V2.23369C64.0879 1.91369 64.1745 1.68702 64.3479 1.55369C64.5345 1.42036 64.8145 1.35369 65.1879 1.35369C65.5612 1.35369 65.8279 1.42702 65.9879 1.57369C66.1612 1.70702 66.2479 1.92702 66.2479 2.23369V2.55369C66.2479 2.87369 66.1612 3.10036 65.9879 3.23369C65.8145 3.36702 65.5412 3.43369 65.1679 3.43369Z" fill="white"/>
</svg>
