<svg width="19" height="20" viewBox="0 0 19 20" fill="none" xmlns="http://www.w3.org/2000/svg">
    <g clip-path="url(#clip0)">
        <path d="M9.20265 17.586C9.08091 17.586 8.95917 17.586 8.83933 17.586C8.83933 17.586 8.16131 17.486 8.16131 16.8003C8.16131 16.1146 8.9002 16.092 8.9002 16.092C9.00102 16.092 9.10184 16.092 9.20265 16.092C10.7756 16.0898 12.3088 15.6167 13.5885 14.7385C14.8683 13.8603 15.8309 12.6208 16.3423 11.1925C16.8538 9.76425 16.8886 8.2184 16.4419 6.77025C15.9952 5.32211 15.0893 4.04377 13.8503 3.11329C12.6112 2.18281 11.1008 1.64651 9.52942 1.57908C7.95799 1.51165 6.40378 1.91646 5.08326 2.73711C3.76274 3.55777 2.74165 4.75342 2.16221 6.15753C1.58276 7.56165 1.47382 9.10432 1.85054 10.5707C1.85054 10.5707 2.01078 11.2419 1.3011 11.4289C0.591422 11.6159 0.32876 10.936 0.32876 10.936C-0.130066 9.16543 -0.00213464 7.30155 0.694723 5.60414C1.39158 3.90672 2.62264 2.46036 4.21631 1.46664C5.80997 0.47292 7.68684 -0.0186317 9.58529 0.0604981C11.4837 0.139628 13.3092 0.785497 14.8072 1.90808C16.3051 3.03066 17.401 4.57402 17.9421 6.32303C18.4831 8.07204 18.4423 9.93955 17.8254 11.6653C17.2085 13.391 16.0462 14.8889 14.5006 15.9502C12.9549 17.0115 11.1029 17.5833 9.20265 17.586Z" fill="white"/>
        <path d="M9.20278 2.84619C7.57861 2.84828 6.01995 3.46135 4.86105 4.55394C3.70214 5.64652 3.03526 7.13163 3.00342 8.69078V12.8532H4.56134V8.80037C4.56097 7.918 4.83318 7.05535 5.34355 6.32156C5.85391 5.58778 6.57949 5.01582 7.42849 4.67807C8.27748 4.34032 9.21174 4.25195 10.1131 4.42414C11.0144 4.59632 11.8422 5.02133 12.4919 5.64539C13.1416 6.26944 13.5839 7.0645 13.7629 7.92998C13.9419 8.79546 13.8494 9.69245 13.4973 10.5075C13.1452 11.3225 12.5492 12.0189 11.7848 12.5087C11.0203 12.9984 10.1218 13.2594 9.20278 13.2587C9.20278 13.2587 8.398 13.3141 8.398 13.9998C8.45714 14.7427 9.20278 14.7545 9.20278 14.7545C10.8475 14.7545 12.4248 14.1272 13.5877 13.0106C14.7507 11.894 15.404 10.3795 15.404 8.80037C15.404 7.22122 14.7507 5.70675 13.5877 4.59013C12.4248 3.4735 10.8475 2.84619 9.20278 2.84619Z" fill="white"/>
        <path d="M4.55011 12.6709H2.99219V19.4287C2.99219 19.4287 3.0756 20.0001 3.78528 20.0001C4.41289 20.0001 4.55011 19.4287 4.55011 19.4287V12.6709Z" fill="white"/>
    </g>
    <defs>
        <clipPath id="clip0">
            <rect width="18.3333" height="20" fill="white"/>
        </clipPath>
    </defs>
</svg>
