<svg width="40" height="40" viewBox="0 0 40 40" fill="none" xmlns="http://www.w3.org/2000/svg">
    <path fill-rule="evenodd" clip-rule="evenodd" d="M40 20C40 31.0457 31.0457 40 20 40C8.95431 40 0 31.0457 0 20C0 8.95431 8.95431 0 20 0C31.0457 0 40 8.95431 40 20ZM20.7167 14.7648C18.7714 15.5739 14.8836 17.2486 9.05318 19.7888C8.10641 20.1653 7.61045 20.5336 7.5653 20.8938C7.489 21.5024 8.25121 21.7421 9.28914 22.0685C9.43033 22.1129 9.57661 22.1589 9.72659 22.2076C10.7478 22.5396 12.1214 22.9279 12.8355 22.9433C13.4833 22.9573 14.2062 22.6903 15.0044 22.1422C20.452 18.4649 23.264 16.6063 23.4405 16.5662C23.5651 16.5379 23.7377 16.5024 23.8546 16.6063C23.9716 16.7103 23.9601 16.9071 23.9477 16.9599C23.8722 17.2818 20.8802 20.0634 19.3319 21.5029C18.8492 21.9516 18.5068 22.27 18.4368 22.3427C18.28 22.5055 18.1202 22.6596 17.9667 22.8076C17.018 23.7221 16.3065 24.408 18.006 25.5279C18.8228 26.0661 19.4763 26.5112 20.1283 26.9552C20.8403 27.4401 21.5505 27.9237 22.4694 28.526C22.7035 28.6795 22.9271 28.8389 23.1448 28.9941C23.9735 29.5849 24.7179 30.1156 25.6377 30.031C26.1721 29.9818 26.7241 29.4793 27.0045 27.9805C27.667 24.4385 28.9694 16.764 29.2704 13.6016C29.2968 13.3245 29.2636 12.9699 29.2369 12.8142C29.2103 12.6586 29.1546 12.4368 28.9523 12.2726C28.7127 12.0782 28.3427 12.0372 28.1773 12.0401C27.4251 12.0533 26.2709 12.4546 20.7167 14.7648Z" fill="white"/>
</svg>
