<svg width="40" height="34" viewBox="0 0 40 34" fill="none" xmlns="http://www.w3.org/2000/svg">
    <path d="M12.5836 33.2501C27.6742 33.2501 35.9305 20.7446 35.9305 9.90322C35.9305 9.55166 35.9227 9.19228 35.907 8.84072C37.5131 7.67922 38.8992 6.24054 40 4.59228C38.5042 5.25779 36.9161 5.69242 35.2898 5.88135C37.0021 4.85497 38.2842 3.24257 38.8984 1.34307C37.2876 2.29772 35.526 2.97114 33.6891 3.33447C32.4514 2.01939 30.815 1.14865 29.0328 0.856874C27.2506 0.565098 25.422 0.868539 23.8296 1.72028C22.2372 2.57203 20.9697 3.92463 20.2231 5.56897C19.4765 7.21332 19.2924 9.05781 19.6992 10.8173C16.4375 10.6536 13.2466 9.80629 10.3333 8.33029C7.42004 6.85428 4.84949 4.78252 2.78828 2.24932C1.74067 4.05553 1.42009 6.19286 1.89172 8.22694C2.36334 10.261 3.59177 12.0392 5.32734 13.2001C4.02438 13.1587 2.74996 12.8079 1.60938 12.1767V12.2782C1.60821 14.1737 2.2635 16.0111 3.46385 17.4781C4.6642 18.945 6.33554 19.9511 8.19375 20.3251C6.98676 20.6553 5.71997 20.7034 4.49141 20.4657C5.01576 22.0958 6.03595 23.5216 7.40962 24.544C8.78328 25.5664 10.4419 26.1344 12.1539 26.1688C9.24737 28.452 5.65696 29.6903 1.96094 29.6845C1.30548 29.6835 0.650665 29.6433 0 29.5642C3.75476 31.973 8.12255 33.2524 12.5836 33.2501Z" fill="white"/>
</svg>
